<svg width="800" height="600" xmlns="http://www.w3.org/2000/svg">
    <defs>
        <linearGradient id="grid" x1="0%" y1="0%" x2="100%" y2="100%">
            <stop offset="0%" style="stop-color:#00ff9f;stop-opacity:0.05"/>
            <stop offset="100%" style="stop-color:#00f0ff;stop-opacity:0.05"/>
        </linearGradient>
    </defs>
    <rect width="100%" height="100%" fill="#ffffff"/>
    <path d="M0 50 L800 50 M0 150 L800 150 M0 250 L800 250 M0 350 L800 350 M0 450 L800 450 M0 550 L800 550" stroke="#00ff9f" stroke-width="0.5" stroke-opacity="0.1"/>
    <path d="M50 0 L50 600 M150 0 L150 600 M250 0 L250 600 M350 0 L350 600 M450 0 L450 600 M550 0 L550 600 M650 0 L650 600 M750 0 L750 600" stroke="#00ff9f" stroke-width="0.5" stroke-opacity="0.1"/>
    <circle cx="400" cy="300" r="150" fill="url(#grid)"/>
    <path d="M400 200 L400 400 M300 300 L500 300" stroke="#00ff9f" stroke-width="20" stroke-linecap="round"/>
    <circle cx="400" cy="300" r="50" fill="#00ff9f"/>
</svg>
